# xmcd
#
# Track frame offsets: 
#        150
#        18427
#        36460
#        44541
#        60365
#        89057
#        108427
#        151681
#        167177
#        185487
#        227409
#        259596
#        286464
#        306424
#
# Disc length: 4408 seconds
#
# Revision: 0
# Processed by: cddbd v1.5PL3 Copyright (c) Steve Scherf et al.
# Submitted via: ExactAudioCopy v0.95a4
#
DISCID=bc11360e
DTITLE=Pub Street Blues Band - That's It CD1
DYEAR=2001
DGENRE=Blues
TTITLE0=It's The Blues
TTITLE1=If You Believe
TTITLE2=To My Mother
TTITLE3=Messin' With The Kid
TTITLE4=Long Time Ago
TTITLE5=Stumble Away
TTITLE6=Who's To Blame
TTITLE7=Leavin' Blues
TTITLE8=It's The Blues
TTITLE9=Slow Blues In C
TTITLE10=One Step
TTITLE11=Stormy Monday
TTITLE12=Ain't Nobody's Business
TTITLE13=Blue Monday
EXTD=
EXTT0=
EXTT1=
EXTT2=
EXTT3=
EXTT4=
EXTT5=
EXTT6=
EXTT7=
EXTT8=
EXTT9=
EXTT10=
EXTT11=
EXTT12=
EXTT13=
PLAYORDER=
